<svg width="32" height="32" viewBox="0 0 32 32" fill="none" xmlns="http://www.w3.org/2000/svg">
<path d="M2 16C2 8.26801 8.26801 2 16 2C23.732 2 30 8.26801 30 16C30 23.732 23.732 30 16 30C8.26801 30 2 23.732 2 16Z" fill="#8583EC"/>
<path d="M23 16C23 12.136 19.864 9 16 9C12.136 9 9 12.136 9 16C9 16.931 9.182 17.827 9.518 18.639L12.745 15.405C13.004 15.146 13.41 15.132 13.69 15.363L15.51 16.896L17.806 14.6H17.4C17.015 14.6 16.7 14.285 16.7 13.9C16.7 13.515 17.015 13.2 17.4 13.2H19.5C19.885 13.2 20.2 13.515 20.2 13.9V16C20.2 16.385 19.885 16.7 19.5 16.7C19.115 16.7 18.8 16.385 18.8 16V15.594L16.042 18.345C15.783 18.604 15.37 18.618 15.097 18.38L13.284 16.847L10.204 19.927C11.464 21.782 13.592 23 16 23H21.6C22.37 23 23 22.37 23 21.6V16ZM21.25 21.95C20.865 21.95 20.55 21.635 20.55 21.25C20.55 20.865 20.865 20.55 21.25 20.55C21.635 20.55 21.95 20.865 21.95 21.25C21.95 21.635 21.635 21.95 21.25 21.95Z" fill="white"/>
<path d="M16 28C9.37258 28 4 22.6274 4 16H0C0 24.8366 7.16344 32 16 32V28ZM28 16C28 22.6274 22.6274 28 16 28V32C24.8366 32 32 24.8366 32 16H28ZM16 4C22.6274 4 28 9.37258 28 16H32C32 7.16344 24.8366 0 16 0V4ZM16 0C7.16344 0 0 7.16344 0 16H4C4 9.37258 9.37258 4 16 4V0Z" fill="#212121"/>
</svg>
