<svg width="40" height="40" viewBox="0 0 40 40" fill="none" xmlns="http://www.w3.org/2000/svg">
<path d="M0 20C0 8.95431 8.95431 0 20 0V0C31.0457 0 40 8.95431 40 20V20C40 31.0457 31.0457 40 20 40V40C8.95431 40 0 31.0457 0 20V20Z" fill="#36CE90"/>
<path d="M17.9168 23.3333V16.6667C17.9168 15.75 18.6585 15 19.5835 15H27.0835V14.1667C27.0835 13.25 26.3335 12.5 25.4168 12.5H13.7502C12.8252 12.5 12.0835 13.25 12.0835 14.1667V25.8333C12.0835 26.75 12.8252 27.5 13.7502 27.5H25.4168C26.3335 27.5 27.0835 26.75 27.0835 25.8333V25H19.5835C18.6585 25 17.9168 24.25 17.9168 23.3333ZM20.4168 16.6667C19.9585 16.6667 19.5835 17.0417 19.5835 17.5V22.5C19.5835 22.9583 19.9585 23.3333 20.4168 23.3333H27.9168V16.6667H20.4168ZM22.9168 21.25C22.2252 21.25 21.6668 20.6917 21.6668 20C21.6668 19.3083 22.2252 18.75 22.9168 18.75C23.6085 18.75 24.1668 19.3083 24.1668 20C24.1668 20.6917 23.6085 21.25 22.9168 21.25Z" fill="white"/>
</svg>
