<svg width="62" height="17" viewBox="0 0 62 17" fill="none" xmlns="http://www.w3.org/2000/svg">
<g id="Vector">
<path d="M8.77708 6.36733C8.67129 6.7276 8.26686 6.90602 7.91443 6.76253C7.59673 6.63317 7.43751 6.28679 7.5155 5.95759C7.56505 5.74844 7.6008 5.54923 7.62267 5.35996C7.66566 4.99944 7.66522 4.67897 7.62129 4.39855C7.5773 4.11813 7.49032 3.88581 7.36028 3.70159C7.23424 3.51377 7.06965 3.37849 6.86637 3.29575C6.50533 3.14875 6.10604 3.2067 5.6685 3.46961C5.23284 3.72803 4.78407 4.18589 4.32218 4.84318C3.86218 5.49598 3.41404 6.34001 2.97777 7.37526C2.53395 8.42844 2.23892 9.34792 2.09267 10.1337C1.95049 10.9159 1.94033 11.5471 2.0622 12.0273C2.18812 12.5038 2.43052 12.8152 2.78941 12.9613C2.98832 13.0423 3.19691 13.0642 3.4152 13.0271C3.63754 12.9864 3.86321 12.8866 4.09223 12.7278C4.32342 12.5699 4.55267 12.3534 4.78001 12.0784C4.8991 11.9362 5.01512 11.7786 5.12808 11.6056C5.31472 11.3197 5.67952 11.1877 5.99727 11.3213C6.34702 11.4682 6.50084 11.8751 6.31259 12.2C6.08132 12.5991 5.83386 12.9704 5.57022 13.3138C5.1793 13.8267 4.77023 14.2535 4.343 14.5941C3.91766 14.9302 3.49091 15.1555 3.06273 15.27C2.63645 15.3799 2.22549 15.3544 1.82984 15.1933C1.2461 14.9556 0.843096 14.4634 0.620828 13.7166C0.398561 12.9697 0.378402 12.0138 0.56035 10.8488C0.742298 9.68369 1.14489 8.36171 1.76813 6.88278C2.39326 5.39936 3.0607 4.18519 3.77045 3.24028C4.48209 2.29088 5.18512 1.62938 5.87953 1.25579C6.57396 0.882193 7.21087 0.813347 7.79026 1.04925C8.16001 1.19977 8.45845 1.44729 8.6856 1.7918C8.91274 2.13631 9.06284 2.56758 9.13582 3.08559C9.21069 3.59913 9.20156 4.18874 9.10852 4.85442C9.04497 5.327 8.93449 5.8313 8.77708 6.36733Z" fill="black"/>
<path d="M6.51415 8.60825C6.66913 8.24055 7.09808 8.06588 7.4722 8.21822L7.50806 8.23283C7.88224 8.38517 8.0599 8.80674 7.90493 9.17451C7.74996 9.54221 7.32104 9.71687 6.94686 9.56454L6.91099 9.54992C6.53685 9.39759 6.35918 8.97601 6.51415 8.60825Z" fill="black"/>
<path d="M20.4038 13.3751C20.1738 13.5156 19.9089 13.6511 19.6089 13.7815C19.309 13.912 18.9791 14.0123 18.6191 14.0826C18.2592 14.1628 17.8693 14.203 17.4493 14.203C16.6395 14.203 15.9046 14.0625 15.2448 13.7815C14.5849 13.4905 14.02 13.0992 13.5501 12.6075C13.0802 12.1058 12.7152 11.5338 12.4553 10.8916C12.2053 10.2394 12.0803 9.54698 12.0803 8.81446C12.0803 8.03177 12.2153 7.30427 12.4853 6.63195C12.7552 5.95964 13.1351 5.37262 13.6251 4.8709C14.115 4.36918 14.6849 3.97783 15.3347 3.69686C15.9846 3.4159 16.6895 3.27542 17.4493 3.27542C18.0092 3.27542 18.5341 3.35067 19.0241 3.50119C19.514 3.65171 19.9589 3.84738 20.3588 4.08821L20.0439 4.76554C19.6939 4.54478 19.299 4.35914 18.8591 4.20862C18.4192 4.05811 17.9543 3.98285 17.4643 3.98285C16.8345 3.98285 16.2396 4.10828 15.6797 4.35914C15.1198 4.59997 14.6249 4.94114 14.195 5.38266C13.775 5.81414 13.4451 6.32089 13.2051 6.90289C12.9652 7.48489 12.8452 8.11204 12.8452 8.78435C12.8452 9.42656 12.9502 10.0336 13.1601 10.6056C13.3801 11.1776 13.69 11.6793 14.09 12.1108C14.4999 12.5423 14.9898 12.8834 15.5597 13.1343C16.1296 13.3751 16.7645 13.4955 17.4643 13.4955C17.9842 13.4955 18.4592 13.4253 18.8891 13.2848C19.329 13.1343 19.7189 12.9487 20.0589 12.7279L20.4038 13.3751Z" fill="black"/>
<path d="M25.194 14.203C24.6341 14.203 24.1242 14.0775 23.6643 13.8267C23.2144 13.5658 22.8544 13.2045 22.5845 12.743C22.3245 12.2814 22.1945 11.7445 22.1945 11.1324C22.1945 10.4802 22.3345 9.92327 22.6145 9.46168C22.8944 8.99006 23.2744 8.63384 23.7543 8.39301C24.2342 8.14215 24.779 8.01672 25.3889 8.01672C25.9088 8.01672 26.3988 8.17225 26.8587 8.48332C27.3286 8.79439 27.6636 9.18573 27.8635 9.65735L27.7586 9.86808L27.8485 8.19734H28.4784V14.0826H27.7736V12.2613L27.9235 12.5322C27.8535 12.7329 27.7336 12.9336 27.5636 13.1343C27.3936 13.325 27.1836 13.5056 26.9337 13.6762C26.6937 13.8367 26.4238 13.9672 26.1239 14.0675C25.8339 14.1578 25.524 14.203 25.194 14.203ZM25.3439 13.6009C25.7839 13.6009 26.1788 13.5106 26.5287 13.33C26.8887 13.1393 27.1787 12.8784 27.3986 12.5473C27.6186 12.2162 27.7436 11.8348 27.7736 11.4034V10.5605C27.6936 10.1892 27.5335 9.85804 27.2936 9.56704C27.0636 9.27604 26.7787 9.04525 26.4387 8.87466C26.0988 8.70408 25.7289 8.61878 25.329 8.61878C24.8891 8.61878 24.4842 8.72415 24.1142 8.93487C23.7443 9.13556 23.4494 9.42154 23.2294 9.79282C23.0094 10.1641 22.8995 10.6006 22.8995 11.1023C22.8995 11.5639 23.0094 11.9854 23.2294 12.3667C23.4494 12.7379 23.7443 13.039 24.1142 13.2698C24.4942 13.4905 24.904 13.6009 25.3439 13.6009Z" fill="black"/>
<path d="M34.3812 14.203C33.8213 14.203 33.2964 14.0575 32.8065 13.7665C32.3166 13.4654 31.9567 13.0791 31.7267 12.6075L31.8467 12.3516V16.9123H31.1418V8.15218H31.7717L31.8467 10.0788L31.7117 9.6423C31.9717 9.17068 32.3516 8.78435 32.8515 8.48332C33.3514 8.17225 33.8963 8.01672 34.4862 8.01672C35.0461 8.01672 35.551 8.15218 36.0009 8.42311C36.4508 8.69404 36.8058 9.06532 37.0657 9.53694C37.3357 9.99853 37.4706 10.5304 37.4706 11.1324C37.4706 11.7245 37.3307 12.2563 37.0507 12.7279C36.7808 13.1895 36.4108 13.5507 35.9409 13.8116C35.481 14.0725 34.9611 14.203 34.3812 14.203ZM34.2612 13.616C34.7211 13.616 35.1361 13.5056 35.506 13.2848C35.8859 13.0641 36.1859 12.768 36.4058 12.3968C36.6358 12.0155 36.7508 11.594 36.7508 11.1324C36.7508 10.6608 36.6408 10.2394 36.4208 9.86808C36.2009 9.48677 35.9059 9.18573 35.536 8.96497C35.1761 8.74422 34.7661 8.63384 34.3062 8.63384C33.8663 8.63384 33.4664 8.73418 33.1064 8.93487C32.7465 9.13556 32.4566 9.40649 32.2366 9.74767C32.0166 10.0888 31.8867 10.4752 31.8467 10.9066V11.3883C31.8767 11.7997 32.0016 12.176 32.2216 12.5172C32.4516 12.8584 32.7415 13.1293 33.0914 13.33C33.4514 13.5206 33.8413 13.616 34.2612 13.616Z" fill="black"/>
<path d="M40.9429 14.203C40.6029 14.203 40.248 14.1428 39.8781 14.0224C39.5081 13.8919 39.2082 13.6862 38.9782 13.4052L39.3082 12.9386C39.5081 13.1494 39.7431 13.3199 40.013 13.4504C40.293 13.5708 40.5879 13.631 40.8979 13.631C41.1278 13.631 41.3428 13.6009 41.5428 13.5407C41.7527 13.4705 41.9227 13.3551 42.0527 13.1945C42.1826 13.034 42.2476 12.8182 42.2476 12.5473C42.2476 12.2663 42.1676 12.0506 42.0077 11.9001C41.8577 11.7495 41.6627 11.6291 41.4228 11.5388C41.1928 11.4385 40.9479 11.3482 40.6879 11.2679C40.258 11.1274 39.9031 10.9368 39.6231 10.6959C39.3532 10.4551 39.2182 10.1139 39.2182 9.67241C39.2182 9.3513 39.2932 9.07034 39.4431 8.82951C39.6031 8.58868 39.8181 8.40304 40.088 8.27259C40.358 8.13211 40.6629 8.06187 41.0029 8.06187C41.3128 8.06187 41.6177 8.11204 41.9177 8.21239C42.2276 8.31273 42.5076 8.48332 42.7575 8.72415L42.4426 9.22085C42.2826 9.0001 42.0677 8.84958 41.7977 8.7693C41.5378 8.68903 41.3078 8.64387 41.1078 8.63384C40.9379 8.63384 40.7579 8.66896 40.5679 8.7392C40.388 8.80944 40.233 8.9148 40.103 9.05529C39.983 9.18573 39.9231 9.36134 39.9231 9.5821C39.9231 9.81289 39.988 10.0035 40.118 10.1541C40.248 10.2945 40.413 10.4099 40.6129 10.5003C40.8229 10.5906 41.0378 10.6759 41.2578 10.7561C41.5478 10.8464 41.8177 10.9568 42.0677 11.0873C42.3276 11.2077 42.5376 11.3733 42.6975 11.584C42.8675 11.7847 42.9525 12.0556 42.9525 12.3968C42.9525 12.7379 42.8775 13.049 42.7275 13.33C42.5776 13.6009 42.3526 13.8167 42.0527 13.9772C41.7627 14.1277 41.3928 14.203 40.9429 14.203Z" fill="black"/>
<path d="M46.9292 14.2481C46.3793 14.2481 45.9394 14.0876 45.6094 13.7665C45.2795 13.4353 45.1045 13.0089 45.0845 12.4871V8.19734H45.7894V12.2764C45.8094 12.6577 45.9294 12.9738 46.1493 13.2246C46.3793 13.4755 46.7192 13.6109 47.1691 13.631C47.5491 13.631 47.904 13.5307 48.234 13.33C48.5639 13.1293 48.8288 12.8584 49.0288 12.5172C49.2388 12.166 49.3438 11.7696 49.3438 11.3281V8.19734H50.0486V14.0826H49.4187L49.3438 12.2312L49.4487 12.6376C49.3487 12.9386 49.1688 13.2146 48.9088 13.4654C48.6589 13.7063 48.3589 13.8969 48.009 14.0374C47.6691 14.1779 47.3091 14.2481 46.9292 14.2481Z" fill="black"/>
<path d="M52.7149 2.64324H53.4198V14.0826H52.7149V2.64324Z" fill="black"/>
<path d="M58.633 14.203C58.0231 14.203 57.4832 14.0675 57.0133 13.7966C56.5434 13.5257 56.1735 13.1594 55.9035 12.6978C55.6436 12.2262 55.5136 11.6994 55.5136 11.1174C55.5136 10.5454 55.6536 10.0236 55.9335 9.55199C56.2135 9.08037 56.5884 8.70408 57.0583 8.42311C57.5382 8.14215 58.0681 8.00166 58.648 8.00166C59.3479 8.00166 59.9328 8.20737 60.4027 8.61878C60.8826 9.0302 61.2275 9.56704 61.4375 10.2293L56.3085 12.2162L56.0985 11.7044L60.7926 9.86808L60.6427 10.0788C60.4727 9.67742 60.2127 9.33123 59.8628 9.04023C59.5229 8.74923 59.1029 8.60373 58.603 8.60373C58.1531 8.60373 57.7482 8.71411 57.3883 8.93487C57.0283 9.15563 56.7384 9.45165 56.5184 9.82292C56.3085 10.1942 56.2035 10.6157 56.2035 11.0873C56.2035 11.5288 56.3035 11.9402 56.5034 12.3215C56.7134 12.7028 57.0033 13.0089 57.3733 13.2397C57.7432 13.4705 58.1681 13.5859 58.648 13.5859C58.968 13.5859 59.2729 13.5257 59.5629 13.4052C59.8628 13.2848 60.1277 13.1293 60.3577 12.9386L60.7176 13.4504C60.4377 13.6712 60.1127 13.8518 59.7428 13.9923C59.3829 14.1327 59.013 14.203 58.633 14.203Z" fill="black"/>
</g>
</svg>
