<svg width="20" height="20" viewBox="0 0 20 20" fill="none" xmlns="http://www.w3.org/2000/svg">
<g id="Icon/Right">
<path id="Vector" d="M12.9167 16.6667H4.58341L4.58341 5.83335C4.58341 5.37502 4.20841 5.00002 3.75008 5.00002C3.29175 5.00002 2.91675 5.37502 2.91675 5.83335L2.91675 16.6667C2.91675 17.5834 3.66675 18.3334 4.58341 18.3334H12.9167C13.3751 18.3334 13.7501 17.9584 13.7501 17.5C13.7501 17.0417 13.3751 16.6667 12.9167 16.6667ZM17.0834 13.3334V3.33335C17.0834 2.41669 16.3334 1.66669 15.4167 1.66669L7.91675 1.66669C7.00008 1.66669 6.25008 2.41669 6.25008 3.33335L6.25008 13.3334C6.25008 14.25 7.00008 15 7.91675 15L15.4167 15C16.3334 15 17.0834 14.25 17.0834 13.3334ZM15.4167 13.3334L7.91675 13.3334L7.91675 3.33335L15.4167 3.33335L15.4167 13.3334Z" fill="#B8B8B8"/>
</g>
</svg>
