<svg width="61" height="17" viewBox="0 0 61 17" fill="none" xmlns="http://www.w3.org/2000/svg">
<g id="Group 5">
<g id="Group 3">
<path id="Vector" d="M25.9989 10.1728H29.6302V11.9256H23.7881V0.912292H25.9989V10.1728Z" fill="#1D1D1B"/>
<path id="Vector_2" d="M39.1619 7.36406C39.1619 7.67911 39.1397 7.96309 39.0998 8.21602H32.7071C32.7604 8.84611 32.9824 9.34308 33.3686 9.69806C33.7548 10.053 34.2387 10.235 34.8069 10.235C35.6282 10.235 36.2098 9.88443 36.5605 9.1789H38.9444C38.6913 10.022 38.2074 10.7142 37.4927 11.26C36.778 11.7969 35.899 12.0631 34.8558 12.0631C34.0123 12.0631 33.2576 11.8812 32.5828 11.5129C31.9214 11.1357 31.3975 10.6033 31.0202 9.91992C30.6517 9.23659 30.4697 8.44676 30.4697 7.55487C30.4697 6.64967 30.6517 5.8554 31.0202 5.17206C31.3887 4.48872 31.9036 3.96069 32.5651 3.5924C33.2265 3.2241 33.9901 3.04218 34.8558 3.04218C35.6859 3.04218 36.4273 3.21966 37.0799 3.57908C37.7413 3.9385 38.2518 4.44878 38.6114 5.10994C38.9755 5.76221 39.1619 6.51211 39.1619 7.36406ZM36.8712 6.73397C36.8623 6.16601 36.6537 5.7134 36.2542 5.37617C35.8546 5.03007 35.3663 4.85701 34.7847 4.85701C34.2387 4.85701 33.7726 5.02563 33.3952 5.36286C33.0268 5.68678 32.8004 6.14826 32.716 6.73397H36.8712Z" fill="#1D1D1B"/>
<path id="Vector_3" d="M40.2041 7.52381C40.2041 6.64079 40.3772 5.8554 40.7235 5.17206C41.0831 4.48872 41.5581 3.96069 42.1618 3.5924C42.77 3.2241 43.4492 3.04218 44.1995 3.04218C44.8521 3.04218 45.4203 3.17529 45.9042 3.43709C46.3969 3.69889 46.792 4.03168 47.0895 4.43104V3.18417H49.3136V11.9256H47.0895V10.6476C46.8054 11.0559 46.4103 11.3975 45.9042 11.6726C45.4114 11.9344 44.8343 12.0676 44.1817 12.0676C43.4448 12.0676 42.77 11.8768 42.1618 11.4996C41.5625 11.1224 41.0831 10.59 40.7235 9.90661C40.3772 9.20996 40.2041 8.41569 40.2041 7.52381ZM47.085 7.55487C47.085 7.01796 46.9785 6.56092 46.7698 6.18375C46.5612 5.79327 46.2771 5.50041 45.9175 5.30074C45.5579 5.09219 45.1761 4.98569 44.7633 4.98569C44.3549 4.98569 43.9731 5.08775 43.6268 5.28743C43.2805 5.4871 42.9964 5.77996 42.7745 6.17044C42.5658 6.54761 42.4593 7.00021 42.4593 7.52824C42.4593 8.05628 42.5658 8.51775 42.7745 8.9171C42.9964 9.30758 43.2805 9.60488 43.6268 9.81787C43.9864 10.0264 44.3637 10.1329 44.7633 10.1329C45.1717 10.1329 45.5579 10.0309 45.9175 9.83118C46.2771 9.62263 46.5612 9.32533 46.7698 8.94816C46.9785 8.55325 47.085 8.09178 47.085 7.55487Z" fill="#1D1D1B"/>
<path id="Vector_4" d="M53.6776 4.44435C53.9617 4.04499 54.3523 3.7122 54.8451 3.4504C55.3512 3.17529 55.9239 3.04218 56.5676 3.04218C57.3134 3.04218 57.9881 3.2241 58.5875 3.5924C59.1956 3.96069 59.6751 4.48428 60.0258 5.17206C60.3854 5.84652 60.563 6.62748 60.563 7.52381C60.563 8.41569 60.3854 9.20996 60.0258 9.90661C59.6795 10.59 59.2001 11.1224 58.5875 11.4996C57.9881 11.8768 57.3134 12.0676 56.5676 12.0676C55.9239 12.0676 55.3556 11.9344 54.8629 11.6726C54.379 11.4108 53.9839 11.078 53.6776 10.6787V16.0877H51.4668V3.18417H53.6776V4.44435ZM58.3033 7.52381C58.3033 6.99577 58.1924 6.54761 57.9704 6.166C57.7617 5.77552 57.4776 5.48267 57.118 5.28299C56.7718 5.08331 56.39 4.98126 55.9816 4.98126C55.582 4.98126 55.2047 5.08775 54.8451 5.2963C54.4988 5.49598 54.2147 5.78884 53.9928 6.17932C53.7841 6.5698 53.6776 7.02683 53.6776 7.55043C53.6776 8.07846 53.7841 8.5355 53.9928 8.92154C54.2147 9.31202 54.4988 9.60932 54.8451 9.82231C55.2047 10.022 55.582 10.124 55.9816 10.124C56.39 10.124 56.7718 10.0175 57.118 9.80899C57.4776 9.60044 57.7617 9.29871 57.9704 8.90823C58.1924 8.52219 58.3033 8.06071 58.3033 7.52381Z" fill="#1D1D1B"/>
</g>
<g id="Group 2">
<path id="Vector_5" d="M17.9189 8.69701C17.9189 11.4703 14.5317 12.5974 10.3232 12.5974C6.11474 12.5974 2.67871 11.4703 2.67871 8.69701C2.67871 5.92372 6.09254 3.67847 10.2966 3.67847C14.505 3.67847 17.9189 5.92816 17.9189 8.69701Z" fill="#4BAF74"/>
<path id="Vector_6" d="M17.1417 2.64904C17.1417 1.18919 15.9475 0 14.4781 0C13.6479 0 12.911 0.377166 12.4227 0.967322C11.7568 0.820892 11.0465 0.736585 10.314 0.736585C9.57707 0.736585 8.87121 0.816455 8.20532 0.967322C7.71255 0.377166 6.97119 0 6.14992 0C4.6805 0 3.48633 1.18475 3.48633 2.64904C3.48633 3.12827 3.61507 3.57643 3.83703 3.96247C3.62395 4.41507 3.51296 4.89429 3.51296 5.3957C3.51296 7.96931 6.56277 10.0548 10.3184 10.0548C14.0741 10.0548 17.1239 7.96931 17.1239 5.3957C17.1239 4.89429 17.0085 4.41507 16.7998 3.96247C17.0129 3.57643 17.1417 3.12827 17.1417 2.64904Z" fill="#32DA6D"/>
<path id="Vector_7" d="M5.93294 4.1178C6.82968 4.1178 7.56217 3.39453 7.56217 2.4982C7.56217 1.60631 6.83412 0.878601 5.93294 0.878601C5.0362 0.878601 4.30371 1.60187 4.30371 2.4982C4.30815 3.39453 5.0362 4.1178 5.93294 4.1178Z" fill="#F1F1E8"/>
<path id="Vector_8" d="M14.6156 4.1178C15.5123 4.1178 16.2448 3.39453 16.2448 2.4982C16.2448 1.60631 15.5167 0.878601 14.6156 0.878601C13.7144 0.878601 12.9863 1.60187 12.9863 2.4982C12.9863 3.39453 13.7144 4.1178 14.6156 4.1178Z" fill="#F1F1E8"/>
<path id="Vector_9" d="M5.06633 12.4066C5.41703 12.4066 5.69227 12.1048 5.65232 11.7587C5.51026 10.5429 4.90207 7.91163 2.23404 6.32753C-1.31741 4.21983 1.49268 11.4747 1.49268 11.4747L0.755753 11.8963C0.507152 12.0383 0.613695 12.4066 0.893372 12.4066H5.06633Z" fill="#32DA6D"/>
<path id="Vector_10" d="M15.6635 12.4066C15.3483 12.4066 15.0997 12.1048 15.1352 11.7587C15.2595 10.5474 15.81 7.91163 18.2161 6.32753C21.4257 4.21983 18.8864 11.4747 18.8864 11.4747L19.5523 11.8963C19.7743 12.0383 19.6811 12.4066 19.428 12.4066H15.6635Z" fill="#32DA6D"/>
<path id="Vector_11" d="M5.9322 2.7955C6.09645 2.7955 6.22963 2.66238 6.22963 2.50264C6.22963 2.33846 6.09645 2.20978 5.9322 2.20978C5.76794 2.20978 5.63477 2.3429 5.63477 2.50264C5.6392 2.66238 5.77238 2.7955 5.9322 2.7955Z" fill="#0D0D0D"/>
<path id="Vector_12" d="M14.6148 2.7955C14.7791 2.7955 14.9123 2.66238 14.9123 2.50264C14.9123 2.33846 14.7791 2.20978 14.6148 2.20978C14.4506 2.20978 14.3174 2.3429 14.3174 2.50264C14.3174 2.66238 14.4506 2.7955 14.6148 2.7955Z" fill="#0D0D0D"/>
</g>
</g>
</svg>
