<svg width="81" height="80" viewBox="0 0 81 80" fill="none" xmlns="http://www.w3.org/2000/svg">
<g id="Icon/Right">
<path id="Vector" d="M40.5 6.66663C22.1 6.66663 7.16663 21.6 7.16663 40C7.16663 58.4 22.1 73.3333 40.5 73.3333C58.9 73.3333 73.8333 58.4 73.8333 40C73.8333 21.6 58.9 6.66663 40.5 6.66663ZM31.4666 54.3L19.5 42.3333C18.2 41.0333 18.2 38.9333 19.5 37.6333C20.8 36.3333 22.9 36.3333 24.2 37.6333L33.8333 47.2333L56.7666 24.3C58.0666 23 60.1666 23 61.4666 24.3C62.7666 25.6 62.7666 27.7 61.4666 29L36.1666 54.3C34.9 55.6 32.7666 55.6 31.4666 54.3Z" fill="#29A874"/>
</g>
</svg>
