<svg width="24" height="24" viewBox="0 0 24 24" fill="none" xmlns="http://www.w3.org/2000/svg">
<g clip-path="url(#clip0_48_3484)">
<path d="M20.0174 14.4964C20.0174 17.3722 16.5264 18.5415 12.1884 18.5415C7.85045 18.5415 4.30859 17.3722 4.30859 14.4964C4.30859 11.6205 7.82503 9.28906 12.163 9.28906C16.501 9.28906 20.0174 11.6205 20.0174 14.4964Z" fill="#1F7F58"/>
<path d="M19.2165 8.22166C19.2162 7.65641 19.0415 7.10503 18.7161 6.64282C18.3907 6.18062 17.9306 5.83011 17.3986 5.63918C16.8666 5.44825 16.2886 5.42621 15.7436 5.57605C15.1985 5.72589 14.713 6.04033 14.3534 6.4764C12.9196 6.15985 11.434 6.15985 10.0002 6.4764C9.56329 5.94401 8.94223 5.59528 8.26023 5.4994C7.57822 5.40352 6.88509 5.56749 6.31833 5.95879C5.75157 6.35009 5.3526 6.94012 5.20055 7.61184C5.04851 8.28356 5.1545 8.9879 5.49751 9.58512C5.27705 10.0487 5.16178 10.5552 5.15995 11.0686C5.15995 13.736 8.3012 15.8981 12.1755 15.8981C16.0499 15.8981 19.1911 13.736 19.1911 11.0686C19.1895 10.5552 19.0742 10.0486 18.8535 9.58512C19.0921 9.17035 19.2172 8.70012 19.2165 8.22166Z" fill="#29A874"/>
<path d="M7.66397 9.74688C8.5905 9.74688 9.34161 8.99578 9.34161 8.06924C9.34161 7.14271 8.5905 6.3916 7.66397 6.3916C6.73743 6.3916 5.98633 7.14271 5.98633 8.06924C5.98633 8.99578 6.73743 9.74688 7.66397 9.74688Z" fill="white"/>
<path d="M16.6112 9.74688C17.5378 9.74688 18.2889 8.99578 18.2889 8.06924C18.2889 7.14271 17.5378 6.3916 16.6112 6.3916C15.6847 6.3916 14.9336 7.14271 14.9336 8.06924C14.9336 8.99578 15.6847 9.74688 16.6112 9.74688Z" fill="white"/>
<path d="M6.76663 18.3379C6.85177 18.338 6.93597 18.3201 7.01372 18.2855C7.09148 18.2508 7.16106 18.2001 7.21791 18.1368C7.27476 18.0734 7.3176 17.9987 7.34365 17.9177C7.36969 17.8366 7.37835 17.751 7.36906 17.6664C7.22773 16.4061 6.6009 13.6761 3.8511 12.0341C0.190797 9.84807 3.08854 17.372 3.08854 17.372L2.33157 17.8082C2.27733 17.8393 2.2349 17.8875 2.21086 17.9452C2.18682 18.0029 2.18253 18.067 2.19865 18.1274C2.21476 18.1878 2.25039 18.2412 2.29999 18.2793C2.34958 18.3173 2.41037 18.338 2.47289 18.3379H6.76663Z" fill="#29A874"/>
<path d="M17.692 18.3379C17.3657 18.3379 17.1105 18.0248 17.1471 17.6664C17.2752 16.4061 17.8415 13.6761 20.3269 12.0341C23.6355 9.84807 21.0163 17.372 21.0163 17.372L21.7006 17.8082C21.9283 17.9531 21.8353 18.3379 21.5725 18.3379H17.692Z" fill="#29A874"/>
<path d="M7.6644 8.37372C7.83286 8.37372 7.96943 8.23716 7.96943 8.0687C7.96943 7.90024 7.83286 7.76367 7.6644 7.76367C7.49594 7.76367 7.35938 7.90024 7.35938 8.0687C7.35938 8.23716 7.49594 8.37372 7.6644 8.37372Z" fill="black"/>
<path d="M16.6117 8.37372C16.7801 8.37372 16.9167 8.23716 16.9167 8.0687C16.9167 7.90024 16.7801 7.76367 16.6117 7.76367C16.4432 7.76367 16.3066 7.90024 16.3066 8.0687C16.3066 8.23716 16.4432 8.37372 16.6117 8.37372Z" fill="black"/>
</g>
<defs>
<clipPath id="clip0_48_3484">
<rect width="20" height="13.0653" fill="white" transform="translate(2 5.47656)"/>
</clipPath>
</defs>
</svg>
