<svg width="18" height="18" viewBox="0 0 18 18" fill="none" xmlns="http://www.w3.org/2000/svg">
<path d="M8.99984 0.666748C4.39984 0.666748 0.666504 4.40008 0.666504 9.00008C0.666504 13.6001 4.39984 17.3334 8.99984 17.3334C13.5998 17.3334 17.3332 13.6001 17.3332 9.00008C17.3332 4.40008 13.5998 0.666748 8.99984 0.666748ZM6.7415 12.5751L3.74984 9.58341C3.42484 9.25841 3.42484 8.73342 3.74984 8.40842C4.07484 8.08342 4.59984 8.08342 4.92484 8.40842L7.33317 10.8084L13.0665 5.07508C13.3915 4.75008 13.9165 4.75008 14.2415 5.07508C14.5665 5.40008 14.5665 5.92508 14.2415 6.25008L7.9165 12.5751C7.59984 12.9001 7.0665 12.9001 6.7415 12.5751Z" fill="#1B45F5"/>
</svg>
