<svg width="20" height="20" viewBox="0 0 20 20" fill="none" xmlns="http://www.w3.org/2000/svg">
<path d="M8.33329 13.5802H11.6666C12.125 13.5802 12.5 13.2052 12.5 12.7469V8.58021H13.825C14.5666 8.58021 14.9416 7.68021 14.4166 7.15521L10.5916 3.33021C10.2666 3.00521 9.74163 3.00521 9.41663 3.33021L5.59163 7.15521C5.06663 7.68021 5.43329 8.58021 6.17496 8.58021H7.49996V12.7469C7.49996 13.2052 7.87496 13.5802 8.33329 13.5802ZM4.99996 15.2469H15C15.4583 15.2469 15.8333 15.6219 15.8333 16.0802C15.8333 16.5385 15.4583 16.9135 15 16.9135H4.99996C4.54163 16.9135 4.16663 16.5385 4.16663 16.0802C4.16663 15.6219 4.54163 15.2469 4.99996 15.2469Z" fill="black"/>
</svg>
