<svg width="40" height="40" viewBox="0 0 40 40" fill="none" xmlns="http://www.w3.org/2000/svg">
<path d="M0 20C0 8.95431 8.95431 0 20 0C31.0457 0 40 8.95431 40 20C40 31.0457 31.0457 40 20 40C8.95431 40 0 31.0457 0 20Z" fill="white"/>
<path d="M19.9999 39.7099C30.6535 39.7099 39.2899 31.0735 39.2899 20.4199C39.2899 9.76631 30.6535 1.12988 19.9999 1.12988C9.34638 1.12988 0.709961 9.76631 0.709961 20.4199C0.709961 31.0735 9.34638 39.7099 19.9999 39.7099Z" fill="white"/>
<path d="M19.9999 39.29C30.6535 39.29 39.2899 30.6535 39.2899 20C39.2899 9.34639 30.6535 0.709961 19.9999 0.709961C9.34638 0.709961 0.709961 9.34639 0.709961 20C0.709961 30.6535 9.34638 39.29 19.9999 39.29Z" fill="black"/>
<path fill-rule="evenodd" clip-rule="evenodd" d="M20 1.45424C9.72194 1.45424 1.42003 9.77427 1.42003 20C1.42003 30.2257 9.72194 38.5458 20 38.5458C30.2781 38.5458 38.58 30.2257 38.58 20C38.58 9.77427 30.2781 1.45424 20 1.45424ZM0 20C0 8.93749 8.97093 0 20 0C31.0291 0 40 8.93749 40 20C40 31.0625 31.0291 40 20 40C8.97093 40 0 31.0625 0 20Z" fill="white"/>
<path fill-rule="evenodd" clip-rule="evenodd" d="M20.7292 12.9389C20.7292 12.5773 20.452 12.2842 20.11 12.2842C20.11 12.2842 20.1096 12.2842 20.1092 12.2842C19.7676 12.2842 19.4904 12.5773 19.4904 12.9389C19.4904 15.5774 19.4904 25.4173 19.4904 28.0562C19.4904 28.4178 19.7676 28.711 20.1092 28.711C20.1096 28.711 20.11 28.711 20.11 28.711C20.452 28.711 20.7292 28.4178 20.7292 28.0562C20.7292 25.4173 20.7292 15.5774 20.7292 12.9389Z" fill="white"/>
<path fill-rule="evenodd" clip-rule="evenodd" d="M18.2276 25.3976C17.8858 25.3973 17.6083 25.6902 17.6081 26.0519C17.6081 26.0519 17.6081 26.0523 17.6081 26.0526C17.6078 26.4139 17.8848 26.7073 18.2266 26.7076C19.1776 26.7084 20.9876 26.71 21.9387 26.7108C22.2806 26.7111 22.5581 26.4182 22.5584 26.057C22.5584 26.0566 22.5584 26.0562 22.5584 26.0562C22.5587 25.6946 22.2817 25.4012 21.9397 25.4009C20.9886 25.4001 19.1787 25.3985 18.2276 25.3976Z" fill="white"/>
<path fill-rule="evenodd" clip-rule="evenodd" d="M15.1673 16.8332C14.8252 16.8329 14.5479 17.1258 14.5476 17.4874C14.5476 17.4874 14.5476 17.4878 14.5476 17.4882C14.5473 17.8494 14.8241 18.1428 15.1662 18.1431C17.1099 18.1448 23.0758 18.1501 25.0195 18.1518C25.3613 18.1521 25.6388 17.8592 25.6391 17.4979C25.6391 17.4975 25.6391 17.4972 25.6391 17.4972C25.6394 17.1355 25.3623 16.8421 25.0205 16.8418C23.0768 16.8401 17.1109 16.8349 15.1673 16.8332Z" fill="white"/>
<path fill-rule="evenodd" clip-rule="evenodd" d="M17.2087 13.5239C16.9667 13.2685 16.5746 13.269 16.333 13.525C16.333 13.525 16.3328 13.5253 16.3325 13.5255C16.0912 13.7813 16.0916 14.1958 16.3337 14.4512C17.6669 15.8579 21.6643 20.0756 22.9975 21.4823C23.2396 21.7377 23.6317 21.7372 23.873 21.4815C23.8732 21.4812 23.8735 21.4809 23.8735 21.4809C24.1151 21.225 24.1147 20.8104 23.8726 20.555C22.5393 19.1483 18.542 14.9307 17.2087 13.5239Z" fill="white"/>
<path fill-rule="evenodd" clip-rule="evenodd" d="M16.3418 20.5662C16.1004 20.8223 16.1011 21.2369 16.3433 21.4921C16.3433 21.4921 16.3436 21.4924 16.3439 21.4927C16.5859 21.7477 16.9779 21.747 17.2193 21.4908C18.5488 20.0802 22.5349 15.8506 23.8644 14.4399C24.1057 14.1838 24.105 13.7693 23.863 13.5143C23.8628 13.514 23.8625 13.5137 23.8625 13.5137C23.6203 13.2584 23.2282 13.2591 22.9868 13.5153C21.6573 14.926 17.6712 19.1555 16.3418 20.5662Z" fill="white"/>
<path fill-rule="evenodd" clip-rule="evenodd" d="M20.0073 3.50416C10.8363 3.50416 3.41891 10.9322 3.41891 20.0735C3.41891 29.2148 10.8363 36.6428 20.0073 36.6428C29.1784 36.6428 36.5958 29.2148 36.5958 20.0735C36.5958 10.9322 29.1784 3.50416 20.0073 3.50416ZM2.60315 20.0735C2.60315 10.4513 10.4048 2.66846 20.0073 2.66846C29.6099 2.66846 37.4115 10.4513 37.4115 20.0735C37.4115 29.6956 29.6099 37.4785 20.0073 37.4785C10.4048 37.4785 2.60315 29.6956 2.60315 20.0735Z" fill="#F0827D"/>
</svg>
